<mxfile host="Electron" agent="Mozilla/5.0 (Windows NT 10.0; Win64; x64) AppleWebKit/537.36 (KHTML, like Gecko) draw.io/25.0.2 Chrome/128.0.6613.186 Electron/32.2.5 Safari/537.36" version="25.0.2">
  <diagram name="Page-1" id="4uDW6pqK8jlAVulysUsF">
    <mxGraphModel dx="2317" dy="11887" grid="1" gridSize="10" guides="1" tooltips="1" connect="1" arrows="1" fold="1" page="1" pageScale="1" pageWidth="850" pageHeight="1100" math="0" shadow="0">
      <root>
        <mxCell id="0" />
        <mxCell id="1" parent="0" />
        <mxCell id="JkztsXf71j5ndPKpqwyT-1" style="edgeStyle=orthogonalEdgeStyle;rounded=0;orthogonalLoop=1;jettySize=auto;html=1;exitX=0.5;exitY=1;exitDx=0;exitDy=0;entryX=0.5;entryY=0;entryDx=0;entryDy=0;" parent="1" source="JkztsXf71j5ndPKpqwyT-171" target="JkztsXf71j5ndPKpqwyT-6" edge="1">
          <mxGeometry relative="1" as="geometry">
            <mxPoint x="415.0049999999999" y="-9557" as="sourcePoint" />
            <mxPoint x="415.0000000000002" y="-9527" as="targetPoint" />
          </mxGeometry>
        </mxCell>
        <mxCell id="JkztsXf71j5ndPKpqwyT-186" value="Register" style="edgeLabel;html=1;align=center;verticalAlign=middle;resizable=0;points=[];" parent="JkztsXf71j5ndPKpqwyT-1" vertex="1" connectable="0">
          <mxGeometry x="-0.1754" relative="1" as="geometry">
            <mxPoint x="23" y="-2" as="offset" />
          </mxGeometry>
        </mxCell>
        <mxCell id="JkztsXf71j5ndPKpqwyT-170" value="" style="edgeStyle=orthogonalEdgeStyle;rounded=0;orthogonalLoop=1;jettySize=auto;html=1;" parent="1" source="JkztsXf71j5ndPKpqwyT-2" target="JkztsXf71j5ndPKpqwyT-169" edge="1">
          <mxGeometry relative="1" as="geometry" />
        </mxCell>
        <mxCell id="JkztsXf71j5ndPKpqwyT-2" value="&lt;span style=&quot;font-size: 15px;&quot;&gt;Start&lt;/span&gt;" style="ellipse;whiteSpace=wrap;html=1;" parent="1" vertex="1">
          <mxGeometry x="378.64" y="-9852" width="72.73" height="50" as="geometry" />
        </mxCell>
        <mxCell id="JkztsXf71j5ndPKpqwyT-5" style="edgeStyle=orthogonalEdgeStyle;rounded=0;orthogonalLoop=1;jettySize=auto;html=1;exitX=0.5;exitY=1;exitDx=0;exitDy=0;" parent="1" source="JkztsXf71j5ndPKpqwyT-6" target="JkztsXf71j5ndPKpqwyT-8" edge="1">
          <mxGeometry relative="1" as="geometry" />
        </mxCell>
        <mxCell id="JkztsXf71j5ndPKpqwyT-6" value="&lt;font style=&quot;font-size: 15px;&quot;&gt;GET firstName&lt;/font&gt;" style="shape=parallelogram;perimeter=parallelogramPerimeter;whiteSpace=wrap;html=1;fixedSize=1;" parent="1" vertex="1">
          <mxGeometry x="347.5" y="-9572" width="135" height="45" as="geometry" />
        </mxCell>
        <mxCell id="JkztsXf71j5ndPKpqwyT-7" style="edgeStyle=orthogonalEdgeStyle;rounded=0;orthogonalLoop=1;jettySize=auto;html=1;exitX=0.5;exitY=1;exitDx=0;exitDy=0;entryX=0.5;entryY=0;entryDx=0;entryDy=0;" parent="1" source="JkztsXf71j5ndPKpqwyT-8" target="JkztsXf71j5ndPKpqwyT-10" edge="1">
          <mxGeometry relative="1" as="geometry" />
        </mxCell>
        <mxCell id="JkztsXf71j5ndPKpqwyT-8" value="&lt;font style=&quot;font-size: 15px;&quot;&gt;GET lastName&lt;/font&gt;" style="shape=parallelogram;perimeter=parallelogramPerimeter;whiteSpace=wrap;html=1;fixedSize=1;" parent="1" vertex="1">
          <mxGeometry x="340" y="-9502" width="150" height="45" as="geometry" />
        </mxCell>
        <mxCell id="JkztsXf71j5ndPKpqwyT-9" style="edgeStyle=orthogonalEdgeStyle;rounded=0;orthogonalLoop=1;jettySize=auto;html=1;exitX=0.5;exitY=1;exitDx=0;exitDy=0;entryX=0.5;entryY=0;entryDx=0;entryDy=0;" parent="1" source="JkztsXf71j5ndPKpqwyT-10" target="JkztsXf71j5ndPKpqwyT-12" edge="1">
          <mxGeometry relative="1" as="geometry" />
        </mxCell>
        <mxCell id="JkztsXf71j5ndPKpqwyT-10" value="&lt;font style=&quot;font-size: 15px;&quot;&gt;GET pin&lt;/font&gt;" style="shape=parallelogram;perimeter=parallelogramPerimeter;whiteSpace=wrap;html=1;fixedSize=1;" parent="1" vertex="1">
          <mxGeometry x="342.5" y="-9442" width="150" height="45" as="geometry" />
        </mxCell>
        <mxCell id="JkztsXf71j5ndPKpqwyT-209" value="" style="edgeStyle=orthogonalEdgeStyle;rounded=0;orthogonalLoop=1;jettySize=auto;html=1;" parent="1" source="JkztsXf71j5ndPKpqwyT-12" target="JkztsXf71j5ndPKpqwyT-208" edge="1">
          <mxGeometry relative="1" as="geometry" />
        </mxCell>
        <mxCell id="JkztsXf71j5ndPKpqwyT-12" value="&lt;font style=&quot;font-size: 15px;&quot;&gt;GET initialDeposit&lt;/font&gt;" style="shape=parallelogram;perimeter=parallelogramPerimeter;whiteSpace=wrap;html=1;fixedSize=1;" parent="1" vertex="1">
          <mxGeometry x="337.5" y="-9372" width="160" height="40" as="geometry" />
        </mxCell>
        <mxCell id="JkztsXf71j5ndPKpqwyT-15" style="edgeStyle=orthogonalEdgeStyle;rounded=0;orthogonalLoop=1;jettySize=auto;html=1;exitX=0.5;exitY=1;exitDx=0;exitDy=0;entryX=0.5;entryY=0;entryDx=0;entryDy=0;" parent="1" source="JkztsXf71j5ndPKpqwyT-219" target="JkztsXf71j5ndPKpqwyT-18" edge="1">
          <mxGeometry relative="1" as="geometry">
            <mxPoint x="780.0050000000001" y="-9803.5" as="sourcePoint" />
          </mxGeometry>
        </mxCell>
        <mxCell id="JkztsXf71j5ndPKpqwyT-17" style="edgeStyle=orthogonalEdgeStyle;rounded=0;orthogonalLoop=1;jettySize=auto;html=1;exitX=0.5;exitY=1;exitDx=0;exitDy=0;entryX=0.5;entryY=0;entryDx=0;entryDy=0;" parent="1" source="JkztsXf71j5ndPKpqwyT-18" target="JkztsXf71j5ndPKpqwyT-20" edge="1">
          <mxGeometry relative="1" as="geometry" />
        </mxCell>
        <mxCell id="JkztsXf71j5ndPKpqwyT-18" value="GET accountName" style="shape=parallelogram;perimeter=parallelogramPerimeter;whiteSpace=wrap;html=1;fixedSize=1;fontSize=15;" parent="1" vertex="1">
          <mxGeometry x="700" y="-9780" width="160" height="45" as="geometry" />
        </mxCell>
        <mxCell id="JkztsXf71j5ndPKpqwyT-19" style="edgeStyle=orthogonalEdgeStyle;rounded=0;orthogonalLoop=1;jettySize=auto;html=1;exitX=0.5;exitY=1;exitDx=0;exitDy=0;entryX=0.5;entryY=0;entryDx=0;entryDy=0;" parent="1" source="JkztsXf71j5ndPKpqwyT-20" target="JkztsXf71j5ndPKpqwyT-23" edge="1">
          <mxGeometry relative="1" as="geometry">
            <mxPoint x="780" y="-9573.5" as="targetPoint" />
          </mxGeometry>
        </mxCell>
        <mxCell id="JkztsXf71j5ndPKpqwyT-20" value="GET pin" style="shape=parallelogram;perimeter=parallelogramPerimeter;whiteSpace=wrap;html=1;fixedSize=1;fontSize=15;" parent="1" vertex="1">
          <mxGeometry x="695" y="-9704" width="170" height="31" as="geometry" />
        </mxCell>
        <mxCell id="JkztsXf71j5ndPKpqwyT-21" style="edgeStyle=orthogonalEdgeStyle;rounded=0;orthogonalLoop=1;jettySize=auto;html=1;exitX=1;exitY=0.5;exitDx=0;exitDy=0;entryX=0;entryY=0.5;entryDx=0;entryDy=0;" parent="1" source="JkztsXf71j5ndPKpqwyT-23" target="JkztsXf71j5ndPKpqwyT-25" edge="1">
          <mxGeometry relative="1" as="geometry" />
        </mxCell>
        <mxCell id="JkztsXf71j5ndPKpqwyT-225" value="Yes" style="edgeLabel;html=1;align=center;verticalAlign=middle;resizable=0;points=[];" parent="JkztsXf71j5ndPKpqwyT-21" vertex="1" connectable="0">
          <mxGeometry x="-0.1148" y="-3" relative="1" as="geometry">
            <mxPoint y="-5" as="offset" />
          </mxGeometry>
        </mxCell>
        <mxCell id="JkztsXf71j5ndPKpqwyT-22" style="edgeStyle=orthogonalEdgeStyle;rounded=0;orthogonalLoop=1;jettySize=auto;html=1;exitX=0.5;exitY=1;exitDx=0;exitDy=0;entryX=0.5;entryY=0;entryDx=0;entryDy=0;" parent="1" source="JkztsXf71j5ndPKpqwyT-23" target="JkztsXf71j5ndPKpqwyT-29" edge="1">
          <mxGeometry relative="1" as="geometry" />
        </mxCell>
        <mxCell id="JkztsXf71j5ndPKpqwyT-224" value="No" style="edgeLabel;html=1;align=center;verticalAlign=middle;resizable=0;points=[];" parent="JkztsXf71j5ndPKpqwyT-22" vertex="1" connectable="0">
          <mxGeometry x="-0.3165" relative="1" as="geometry">
            <mxPoint x="9" y="1" as="offset" />
          </mxGeometry>
        </mxCell>
        <mxCell id="JkztsXf71j5ndPKpqwyT-23" value="is credentials correct?" style="rhombus;whiteSpace=wrap;html=1;fontSize=15;" parent="1" vertex="1">
          <mxGeometry x="705" y="-9640" width="150" height="117" as="geometry" />
        </mxCell>
        <mxCell id="JkztsXf71j5ndPKpqwyT-232" value="" style="edgeStyle=orthogonalEdgeStyle;rounded=0;orthogonalLoop=1;jettySize=auto;html=1;" parent="1" source="JkztsXf71j5ndPKpqwyT-25" target="JkztsXf71j5ndPKpqwyT-231" edge="1">
          <mxGeometry relative="1" as="geometry" />
        </mxCell>
        <mxCell id="JkztsXf71j5ndPKpqwyT-25" value="DISPLAY &quot;Successfully Log In&quot;" style="shape=parallelogram;perimeter=parallelogramPerimeter;whiteSpace=wrap;html=1;fixedSize=1;fontSize=15;" parent="1" vertex="1">
          <mxGeometry x="890" y="-9616.5" width="190" height="70" as="geometry" />
        </mxCell>
        <mxCell id="JkztsXf71j5ndPKpqwyT-26" style="edgeStyle=orthogonalEdgeStyle;rounded=0;orthogonalLoop=1;jettySize=auto;html=1;exitX=0.5;exitY=1;exitDx=0;exitDy=0;" parent="1" edge="1">
          <mxGeometry relative="1" as="geometry">
            <mxPoint x="900" y="-9606.5" as="sourcePoint" />
            <mxPoint x="900" y="-9606.5" as="targetPoint" />
          </mxGeometry>
        </mxCell>
        <mxCell id="JkztsXf71j5ndPKpqwyT-245" value="" style="edgeStyle=orthogonalEdgeStyle;rounded=0;orthogonalLoop=1;jettySize=auto;html=1;" parent="1" source="JkztsXf71j5ndPKpqwyT-29" target="JkztsXf71j5ndPKpqwyT-243" edge="1">
          <mxGeometry relative="1" as="geometry" />
        </mxCell>
        <mxCell id="JkztsXf71j5ndPKpqwyT-29" value="DISPLAY &quot;Incorrect Credentials.&quot;" style="shape=parallelogram;perimeter=parallelogramPerimeter;whiteSpace=wrap;html=1;fixedSize=1;fontSize=15;" parent="1" vertex="1">
          <mxGeometry x="680" y="-9491" width="200" height="60" as="geometry" />
        </mxCell>
        <mxCell id="JkztsXf71j5ndPKpqwyT-248" value="" style="edgeStyle=orthogonalEdgeStyle;rounded=0;orthogonalLoop=1;jettySize=auto;html=1;" parent="1" source="JkztsXf71j5ndPKpqwyT-45" target="JkztsXf71j5ndPKpqwyT-247" edge="1">
          <mxGeometry relative="1" as="geometry" />
        </mxCell>
        <mxCell id="JkztsXf71j5ndPKpqwyT-45" value="&lt;font style=&quot;font-size: 15px;&quot;&gt;Dashboard&lt;/font&gt;" style="shape=process;whiteSpace=wrap;html=1;backgroundOutline=1;" parent="1" vertex="1">
          <mxGeometry x="910" y="-9420" width="150" height="70" as="geometry" />
        </mxCell>
        <mxCell id="JkztsXf71j5ndPKpqwyT-157" value="" style="edgeStyle=orthogonalEdgeStyle;rounded=0;orthogonalLoop=1;jettySize=auto;html=1;" parent="1" source="JkztsXf71j5ndPKpqwyT-139" target="JkztsXf71j5ndPKpqwyT-156" edge="1">
          <mxGeometry relative="1" as="geometry" />
        </mxCell>
        <mxCell id="JkztsXf71j5ndPKpqwyT-139" value="&lt;span style=&quot;font-size: 15px;&quot;&gt;Start&lt;/span&gt;" style="ellipse;whiteSpace=wrap;html=1;" parent="1" vertex="1">
          <mxGeometry x="73.64" y="-9850" width="72.73" height="50" as="geometry" />
        </mxCell>
        <mxCell id="JkztsXf71j5ndPKpqwyT-203" value="" style="edgeStyle=orthogonalEdgeStyle;rounded=0;orthogonalLoop=1;jettySize=auto;html=1;" parent="1" source="JkztsXf71j5ndPKpqwyT-142" target="JkztsXf71j5ndPKpqwyT-202" edge="1">
          <mxGeometry relative="1" as="geometry" />
        </mxCell>
        <mxCell id="JkztsXf71j5ndPKpqwyT-142" value="Sign In" style="shape=process;whiteSpace=wrap;html=1;backgroundOutline=1;" parent="1" vertex="1">
          <mxGeometry x="50.00500000000001" y="-9540" width="120" height="60" as="geometry" />
        </mxCell>
        <mxCell id="JkztsXf71j5ndPKpqwyT-176" style="edgeStyle=elbowEdgeStyle;rounded=0;orthogonalLoop=1;jettySize=auto;html=1;" parent="1" source="JkztsXf71j5ndPKpqwyT-153" edge="1">
          <mxGeometry relative="1" as="geometry">
            <mxPoint x="110" y="-9790" as="targetPoint" />
            <Array as="points">
              <mxPoint x="260" y="-9700" />
            </Array>
          </mxGeometry>
        </mxCell>
        <mxCell id="JkztsXf71j5ndPKpqwyT-237" style="edgeStyle=orthogonalEdgeStyle;rounded=0;orthogonalLoop=1;jettySize=auto;html=1;exitX=0.75;exitY=0;exitDx=0;exitDy=0;entryX=0.51;entryY=0;entryDx=0;entryDy=0;entryPerimeter=0;dashed=1;" parent="1" source="JkztsXf71j5ndPKpqwyT-153" target="JkztsXf71j5ndPKpqwyT-168" edge="1">
          <mxGeometry relative="1" as="geometry">
            <mxPoint x="320" y="-9920" as="targetPoint" />
            <Array as="points">
              <mxPoint x="290" y="-9920" />
              <mxPoint x="412" y="-9920" />
            </Array>
          </mxGeometry>
        </mxCell>
        <mxCell id="JkztsXf71j5ndPKpqwyT-153" value="Create Account" style="shape=process;whiteSpace=wrap;html=1;backgroundOutline=1;" parent="1" vertex="1">
          <mxGeometry x="200.005" y="-9650" width="120" height="60" as="geometry" />
        </mxCell>
        <mxCell id="JkztsXf71j5ndPKpqwyT-160" value="" style="edgeStyle=orthogonalEdgeStyle;rounded=0;orthogonalLoop=1;jettySize=auto;html=1;" parent="1" source="JkztsXf71j5ndPKpqwyT-156" target="JkztsXf71j5ndPKpqwyT-159" edge="1">
          <mxGeometry relative="1" as="geometry" />
        </mxCell>
        <mxCell id="JkztsXf71j5ndPKpqwyT-156" value="Display Sign In GUI" style="whiteSpace=wrap;html=1;" parent="1" vertex="1">
          <mxGeometry x="50.01" y="-9760" width="120" height="60" as="geometry" />
        </mxCell>
        <mxCell id="JkztsXf71j5ndPKpqwyT-161" value="" style="edgeStyle=orthogonalEdgeStyle;rounded=0;orthogonalLoop=1;jettySize=auto;html=1;" parent="1" source="JkztsXf71j5ndPKpqwyT-159" target="JkztsXf71j5ndPKpqwyT-142" edge="1">
          <mxGeometry relative="1" as="geometry" />
        </mxCell>
        <mxCell id="JkztsXf71j5ndPKpqwyT-174" value="Sign In&amp;nbsp;" style="edgeLabel;html=1;align=center;verticalAlign=middle;resizable=0;points=[];" parent="JkztsXf71j5ndPKpqwyT-161" vertex="1" connectable="0">
          <mxGeometry x="-0.1921" y="1" relative="1" as="geometry">
            <mxPoint x="19" y="4" as="offset" />
          </mxGeometry>
        </mxCell>
        <mxCell id="JkztsXf71j5ndPKpqwyT-164" value="" style="edgeStyle=orthogonalEdgeStyle;rounded=0;orthogonalLoop=1;jettySize=auto;html=1;" parent="1" source="JkztsXf71j5ndPKpqwyT-159" target="JkztsXf71j5ndPKpqwyT-153" edge="1">
          <mxGeometry relative="1" as="geometry" />
        </mxCell>
        <mxCell id="JkztsXf71j5ndPKpqwyT-173" value="Sign Up" style="edgeLabel;html=1;align=center;verticalAlign=middle;resizable=0;points=[];" parent="JkztsXf71j5ndPKpqwyT-164" vertex="1" connectable="0">
          <mxGeometry x="-0.1715" y="1" relative="1" as="geometry">
            <mxPoint x="1" y="9" as="offset" />
          </mxGeometry>
        </mxCell>
        <mxCell id="JkztsXf71j5ndPKpqwyT-159" value="Event Listener user action" style="rhombus;whiteSpace=wrap;html=1;" parent="1" vertex="1">
          <mxGeometry x="70.00500000000001" y="-9660" width="80" height="80" as="geometry" />
        </mxCell>
        <mxCell id="JkztsXf71j5ndPKpqwyT-167" value="Main Flowchart" style="text;html=1;align=center;verticalAlign=middle;resizable=0;points=[];autosize=1;strokeColor=none;fillColor=none;" parent="1" vertex="1">
          <mxGeometry x="59.999999999999986" y="-9880" width="100" height="30" as="geometry" />
        </mxCell>
        <mxCell id="JkztsXf71j5ndPKpqwyT-168" value="Create Account Flowchart" style="text;html=1;align=center;verticalAlign=middle;resizable=0;points=[];autosize=1;strokeColor=none;fillColor=none;" parent="1" vertex="1">
          <mxGeometry x="330" y="-9882" width="160" height="30" as="geometry" />
        </mxCell>
        <mxCell id="JkztsXf71j5ndPKpqwyT-172" value="" style="edgeStyle=orthogonalEdgeStyle;rounded=0;orthogonalLoop=1;jettySize=auto;html=1;" parent="1" source="JkztsXf71j5ndPKpqwyT-169" target="JkztsXf71j5ndPKpqwyT-171" edge="1">
          <mxGeometry relative="1" as="geometry" />
        </mxCell>
        <mxCell id="JkztsXf71j5ndPKpqwyT-169" value="Display Sign Up GUI" style="whiteSpace=wrap;html=1;" parent="1" vertex="1">
          <mxGeometry x="355.005" y="-9767" width="120" height="60" as="geometry" />
        </mxCell>
        <mxCell id="JkztsXf71j5ndPKpqwyT-215" value="" style="edgeStyle=orthogonalEdgeStyle;rounded=0;orthogonalLoop=1;jettySize=auto;html=1;" parent="1" source="JkztsXf71j5ndPKpqwyT-171" target="JkztsXf71j5ndPKpqwyT-214" edge="1">
          <mxGeometry relative="1" as="geometry" />
        </mxCell>
        <mxCell id="JkztsXf71j5ndPKpqwyT-216" value="Sign In" style="edgeLabel;html=1;align=center;verticalAlign=middle;resizable=0;points=[];" parent="JkztsXf71j5ndPKpqwyT-215" vertex="1" connectable="0">
          <mxGeometry x="-0.4465" y="1" relative="1" as="geometry">
            <mxPoint x="7" y="-7" as="offset" />
          </mxGeometry>
        </mxCell>
        <mxCell id="JkztsXf71j5ndPKpqwyT-171" value="Event Listener&lt;div&gt;user action&lt;/div&gt;" style="rhombus;whiteSpace=wrap;html=1;" parent="1" vertex="1">
          <mxGeometry x="375.005" y="-9682" width="80" height="80" as="geometry" />
        </mxCell>
        <mxCell id="JkztsXf71j5ndPKpqwyT-205" value="" style="edgeStyle=orthogonalEdgeStyle;rounded=0;orthogonalLoop=1;jettySize=auto;html=1;" parent="1" source="JkztsXf71j5ndPKpqwyT-195" target="JkztsXf71j5ndPKpqwyT-204" edge="1">
          <mxGeometry relative="1" as="geometry" />
        </mxCell>
        <mxCell id="JkztsXf71j5ndPKpqwyT-195" value="Main" style="shape=process;whiteSpace=wrap;html=1;backgroundOutline=1;" parent="1" vertex="1">
          <mxGeometry x="523.99" y="-9580" width="120" height="60" as="geometry" />
        </mxCell>
        <mxCell id="JkztsXf71j5ndPKpqwyT-202" value="End" style="ellipse;whiteSpace=wrap;html=1;" parent="1" vertex="1">
          <mxGeometry x="80.02" y="-9440" width="59.98" height="40" as="geometry" />
        </mxCell>
        <mxCell id="JkztsXf71j5ndPKpqwyT-204" value="End" style="ellipse;whiteSpace=wrap;html=1;" parent="1" vertex="1">
          <mxGeometry x="553.24" y="-9480" width="61.5" height="30" as="geometry" />
        </mxCell>
        <mxCell id="JkztsXf71j5ndPKpqwyT-208" value="A" style="ellipse;whiteSpace=wrap;html=1;" parent="1" vertex="1">
          <mxGeometry x="405.5" y="-9304" width="24" height="24" as="geometry" />
        </mxCell>
        <mxCell id="JkztsXf71j5ndPKpqwyT-218" value="" style="edgeStyle=orthogonalEdgeStyle;rounded=0;orthogonalLoop=1;jettySize=auto;html=1;" parent="1" source="JkztsXf71j5ndPKpqwyT-210" edge="1">
          <mxGeometry relative="1" as="geometry">
            <mxPoint x="511.5" y="-9642" as="targetPoint" />
          </mxGeometry>
        </mxCell>
        <mxCell id="JkztsXf71j5ndPKpqwyT-210" value="A" style="ellipse;whiteSpace=wrap;html=1;" parent="1" vertex="1">
          <mxGeometry x="500" y="-9726" width="24" height="24" as="geometry" />
        </mxCell>
        <mxCell id="JkztsXf71j5ndPKpqwyT-217" value="" style="edgeStyle=orthogonalEdgeStyle;rounded=0;orthogonalLoop=1;jettySize=auto;html=1;" parent="1" source="JkztsXf71j5ndPKpqwyT-214" target="JkztsXf71j5ndPKpqwyT-195" edge="1">
          <mxGeometry relative="1" as="geometry" />
        </mxCell>
        <mxCell id="JkztsXf71j5ndPKpqwyT-214" value="Dispose Create Account" style="whiteSpace=wrap;html=1;" parent="1" vertex="1">
          <mxGeometry x="529" y="-9670" width="109.99" height="56" as="geometry" />
        </mxCell>
        <mxCell id="JkztsXf71j5ndPKpqwyT-219" value="&lt;span style=&quot;font-size: 15px;&quot;&gt;Start&lt;/span&gt;" style="ellipse;whiteSpace=wrap;html=1;" parent="1" vertex="1">
          <mxGeometry x="743.63" y="-9856" width="72.73" height="50" as="geometry" />
        </mxCell>
        <mxCell id="JkztsXf71j5ndPKpqwyT-223" style="edgeStyle=orthogonalEdgeStyle;rounded=0;orthogonalLoop=1;jettySize=auto;html=1;exitX=0.5;exitY=1;exitDx=0;exitDy=0;" parent="1" edge="1">
          <mxGeometry relative="1" as="geometry">
            <mxPoint x="760" y="-9476.5" as="sourcePoint" />
            <mxPoint x="760" y="-9476.5" as="targetPoint" />
          </mxGeometry>
        </mxCell>
        <mxCell id="JkztsXf71j5ndPKpqwyT-230" value="Sign In Flowchart" style="text;html=1;align=center;verticalAlign=middle;resizable=0;points=[];autosize=1;strokeColor=none;fillColor=none;" parent="1" vertex="1">
          <mxGeometry x="715" y="-9886" width="120" height="30" as="geometry" />
        </mxCell>
        <mxCell id="JkztsXf71j5ndPKpqwyT-233" value="" style="edgeStyle=orthogonalEdgeStyle;rounded=0;orthogonalLoop=1;jettySize=auto;html=1;" parent="1" source="JkztsXf71j5ndPKpqwyT-231" target="JkztsXf71j5ndPKpqwyT-45" edge="1">
          <mxGeometry relative="1" as="geometry" />
        </mxCell>
        <mxCell id="JkztsXf71j5ndPKpqwyT-231" value="Dipose Sign In" style="whiteSpace=wrap;html=1;fontSize=15;" parent="1" vertex="1">
          <mxGeometry x="925" y="-9517" width="120" height="60" as="geometry" />
        </mxCell>
        <mxCell id="JkztsXf71j5ndPKpqwyT-234" style="edgeStyle=orthogonalEdgeStyle;rounded=0;orthogonalLoop=1;jettySize=auto;html=1;entryX=0.542;entryY=-0.008;entryDx=0;entryDy=0;entryPerimeter=0;dashed=1;" parent="1" source="JkztsXf71j5ndPKpqwyT-142" target="JkztsXf71j5ndPKpqwyT-230" edge="1">
          <mxGeometry relative="1" as="geometry">
            <Array as="points">
              <mxPoint x="-10" y="-9510" />
              <mxPoint x="-10" y="-9960" />
              <mxPoint x="780" y="-9960" />
            </Array>
          </mxGeometry>
        </mxCell>
        <mxCell id="JkztsXf71j5ndPKpqwyT-242" style="edgeStyle=orthogonalEdgeStyle;rounded=0;orthogonalLoop=1;jettySize=auto;html=1;" parent="1" source="JkztsXf71j5ndPKpqwyT-241" edge="1">
          <mxGeometry relative="1" as="geometry">
            <mxPoint x="110" y="-9680" as="targetPoint" />
          </mxGeometry>
        </mxCell>
        <mxCell id="JkztsXf71j5ndPKpqwyT-241" value="B" style="ellipse;whiteSpace=wrap;html=1;" parent="1" vertex="1">
          <mxGeometry x="35.999999999999986" y="-9692" width="24" height="24" as="geometry" />
        </mxCell>
        <mxCell id="JkztsXf71j5ndPKpqwyT-243" value="B" style="ellipse;whiteSpace=wrap;html=1;" parent="1" vertex="1">
          <mxGeometry x="768" y="-9394" width="24" height="24" as="geometry" />
        </mxCell>
        <mxCell id="JkztsXf71j5ndPKpqwyT-247" value="&lt;span style=&quot;font-size: 15px;&quot;&gt;End&lt;/span&gt;" style="ellipse;whiteSpace=wrap;html=1;" parent="1" vertex="1">
          <mxGeometry x="948.64" y="-9317" width="72.73" height="50" as="geometry" />
        </mxCell>
        <mxCell id="i7Oei2AFkARMC62cGmq6-1" value="Dashboard" style="text;html=1;align=center;verticalAlign=middle;resizable=0;points=[];autosize=1;strokeColor=none;fillColor=none;" parent="1" vertex="1">
          <mxGeometry x="1216" y="-9890" width="80" height="30" as="geometry" />
        </mxCell>
        <mxCell id="hdrvY5TLNorQvgxIyoRD-92" style="edgeStyle=orthogonalEdgeStyle;rounded=0;orthogonalLoop=1;jettySize=auto;html=1;entryX=0.5;entryY=0;entryDx=0;entryDy=0;" edge="1" parent="1" source="_YGeGJDo8BTtI1r9FFeI-8" target="_YGeGJDo8BTtI1r9FFeI-35">
          <mxGeometry relative="1" as="geometry" />
        </mxCell>
        <mxCell id="_YGeGJDo8BTtI1r9FFeI-8" value="&lt;font style=&quot;font-size: 15px;&quot;&gt;Add Deposit&lt;/font&gt;" style="shape=process;whiteSpace=wrap;html=1;backgroundOutline=1;" parent="1" vertex="1">
          <mxGeometry x="1410" y="-9767" width="120" height="60" as="geometry" />
        </mxCell>
        <mxCell id="_YGeGJDo8BTtI1r9FFeI-36" value="" style="edgeStyle=orthogonalEdgeStyle;rounded=0;orthogonalLoop=1;jettySize=auto;html=1;" parent="1" source="_YGeGJDo8BTtI1r9FFeI-9" target="_YGeGJDo8BTtI1r9FFeI-35" edge="1">
          <mxGeometry relative="1" as="geometry" />
        </mxCell>
        <mxCell id="_YGeGJDo8BTtI1r9FFeI-9" value="&lt;font style=&quot;font-size: 15px;&quot;&gt;Transfer Money&lt;/font&gt;" style="shape=process;whiteSpace=wrap;html=1;backgroundOutline=1;" parent="1" vertex="1">
          <mxGeometry x="1410" y="-9660" width="120" height="60" as="geometry" />
        </mxCell>
        <mxCell id="hdrvY5TLNorQvgxIyoRD-93" style="edgeStyle=orthogonalEdgeStyle;rounded=0;orthogonalLoop=1;jettySize=auto;html=1;entryX=0.5;entryY=1;entryDx=0;entryDy=0;" edge="1" parent="1" source="_YGeGJDo8BTtI1r9FFeI-10" target="_YGeGJDo8BTtI1r9FFeI-35">
          <mxGeometry relative="1" as="geometry" />
        </mxCell>
        <mxCell id="_YGeGJDo8BTtI1r9FFeI-10" value="&lt;font style=&quot;font-size: 15px;&quot;&gt;Withdraw&lt;/font&gt;" style="shape=process;whiteSpace=wrap;html=1;backgroundOutline=1;" parent="1" vertex="1">
          <mxGeometry x="1410" y="-9546.5" width="120" height="60" as="geometry" />
        </mxCell>
        <mxCell id="_YGeGJDo8BTtI1r9FFeI-22" value="" style="edgeStyle=orthogonalEdgeStyle;rounded=0;orthogonalLoop=1;jettySize=auto;html=1;" parent="1" source="_YGeGJDo8BTtI1r9FFeI-15" target="_YGeGJDo8BTtI1r9FFeI-20" edge="1">
          <mxGeometry relative="1" as="geometry" />
        </mxCell>
        <mxCell id="_YGeGJDo8BTtI1r9FFeI-15" value="&lt;font style=&quot;font-size: 15px;&quot;&gt;Start&lt;/font&gt;" style="ellipse;whiteSpace=wrap;html=1;" parent="1" vertex="1">
          <mxGeometry x="1220" y="-9850" width="80" height="40" as="geometry" />
        </mxCell>
        <mxCell id="hdrvY5TLNorQvgxIyoRD-89" style="edgeStyle=orthogonalEdgeStyle;rounded=0;orthogonalLoop=1;jettySize=auto;html=1;" edge="1" parent="1" source="_YGeGJDo8BTtI1r9FFeI-17">
          <mxGeometry relative="1" as="geometry">
            <mxPoint x="1260" y="-9799" as="targetPoint" />
          </mxGeometry>
        </mxCell>
        <mxCell id="_YGeGJDo8BTtI1r9FFeI-17" value="&lt;font style=&quot;font-size: 15px;&quot;&gt;A&lt;/font&gt;" style="ellipse;whiteSpace=wrap;html=1;aspect=fixed;" parent="1" vertex="1">
          <mxGeometry x="1320" y="-9819" width="40" height="40" as="geometry" />
        </mxCell>
        <mxCell id="_YGeGJDo8BTtI1r9FFeI-18" style="edgeStyle=orthogonalEdgeStyle;rounded=0;orthogonalLoop=1;jettySize=auto;html=1;dashed=1;" parent="1" source="JkztsXf71j5ndPKpqwyT-45" target="i7Oei2AFkARMC62cGmq6-1" edge="1">
          <mxGeometry relative="1" as="geometry">
            <Array as="points">
              <mxPoint x="1090" y="-9385" />
              <mxPoint x="1090" y="-9920" />
              <mxPoint x="1260" y="-9920" />
            </Array>
          </mxGeometry>
        </mxCell>
        <mxCell id="_YGeGJDo8BTtI1r9FFeI-23" value="" style="edgeStyle=orthogonalEdgeStyle;rounded=0;orthogonalLoop=1;jettySize=auto;html=1;" parent="1" source="_YGeGJDo8BTtI1r9FFeI-20" target="_YGeGJDo8BTtI1r9FFeI-8" edge="1">
          <mxGeometry relative="1" as="geometry" />
        </mxCell>
        <mxCell id="_YGeGJDo8BTtI1r9FFeI-24" value="Deposit Button" style="edgeLabel;html=1;align=center;verticalAlign=middle;resizable=0;points=[];" parent="_YGeGJDo8BTtI1r9FFeI-23" vertex="1" connectable="0">
          <mxGeometry x="-0.4124" y="1" relative="1" as="geometry">
            <mxPoint x="16" y="-9" as="offset" />
          </mxGeometry>
        </mxCell>
        <mxCell id="_YGeGJDo8BTtI1r9FFeI-26" value="" style="edgeStyle=orthogonalEdgeStyle;rounded=0;orthogonalLoop=1;jettySize=auto;html=1;" parent="1" source="_YGeGJDo8BTtI1r9FFeI-20" target="_YGeGJDo8BTtI1r9FFeI-25" edge="1">
          <mxGeometry relative="1" as="geometry" />
        </mxCell>
        <mxCell id="_YGeGJDo8BTtI1r9FFeI-42" value="No" style="edgeLabel;html=1;align=center;verticalAlign=middle;resizable=0;points=[];" parent="_YGeGJDo8BTtI1r9FFeI-26" vertex="1" connectable="0">
          <mxGeometry x="0.4584" y="-2" relative="1" as="geometry">
            <mxPoint x="11" y="-3" as="offset" />
          </mxGeometry>
        </mxCell>
        <mxCell id="_YGeGJDo8BTtI1r9FFeI-20" value="Event Listener user action" style="rhombus;whiteSpace=wrap;html=1;" parent="1" vertex="1">
          <mxGeometry x="1219.9950000000001" y="-9777" width="80" height="80" as="geometry" />
        </mxCell>
        <mxCell id="_YGeGJDo8BTtI1r9FFeI-27" style="edgeStyle=orthogonalEdgeStyle;rounded=0;orthogonalLoop=1;jettySize=auto;html=1;entryX=0;entryY=0.5;entryDx=0;entryDy=0;" parent="1" source="_YGeGJDo8BTtI1r9FFeI-25" target="_YGeGJDo8BTtI1r9FFeI-9" edge="1">
          <mxGeometry relative="1" as="geometry" />
        </mxCell>
        <mxCell id="_YGeGJDo8BTtI1r9FFeI-28" value="Transfer Button" style="edgeLabel;html=1;align=center;verticalAlign=middle;resizable=0;points=[];" parent="_YGeGJDo8BTtI1r9FFeI-27" vertex="1" connectable="0">
          <mxGeometry x="-0.0167" y="2" relative="1" as="geometry">
            <mxPoint x="-3" y="-6" as="offset" />
          </mxGeometry>
        </mxCell>
        <mxCell id="_YGeGJDo8BTtI1r9FFeI-30" value="" style="edgeStyle=orthogonalEdgeStyle;rounded=0;orthogonalLoop=1;jettySize=auto;html=1;" parent="1" source="_YGeGJDo8BTtI1r9FFeI-25" target="_YGeGJDo8BTtI1r9FFeI-29" edge="1">
          <mxGeometry relative="1" as="geometry" />
        </mxCell>
        <mxCell id="_YGeGJDo8BTtI1r9FFeI-44" value="No" style="edgeLabel;html=1;align=center;verticalAlign=middle;resizable=0;points=[];" parent="_YGeGJDo8BTtI1r9FFeI-30" vertex="1" connectable="0">
          <mxGeometry x="-0.2426" y="-1" relative="1" as="geometry">
            <mxPoint x="10" y="-5" as="offset" />
          </mxGeometry>
        </mxCell>
        <mxCell id="_YGeGJDo8BTtI1r9FFeI-25" value="Event Listener user action" style="rhombus;whiteSpace=wrap;html=1;" parent="1" vertex="1">
          <mxGeometry x="1220.005" y="-9670" width="80" height="80" as="geometry" />
        </mxCell>
        <mxCell id="_YGeGJDo8BTtI1r9FFeI-31" style="edgeStyle=orthogonalEdgeStyle;rounded=0;orthogonalLoop=1;jettySize=auto;html=1;entryX=0;entryY=0.5;entryDx=0;entryDy=0;" parent="1" source="_YGeGJDo8BTtI1r9FFeI-29" target="_YGeGJDo8BTtI1r9FFeI-10" edge="1">
          <mxGeometry relative="1" as="geometry" />
        </mxCell>
        <mxCell id="_YGeGJDo8BTtI1r9FFeI-32" value="Withdraw Button" style="edgeLabel;html=1;align=center;verticalAlign=middle;resizable=0;points=[];" parent="_YGeGJDo8BTtI1r9FFeI-31" vertex="1" connectable="0">
          <mxGeometry x="-0.1139" relative="1" as="geometry">
            <mxPoint y="-8" as="offset" />
          </mxGeometry>
        </mxCell>
        <mxCell id="_YGeGJDo8BTtI1r9FFeI-40" value="" style="edgeStyle=orthogonalEdgeStyle;rounded=0;orthogonalLoop=1;jettySize=auto;html=1;" parent="1" source="_YGeGJDo8BTtI1r9FFeI-29" target="_YGeGJDo8BTtI1r9FFeI-39" edge="1">
          <mxGeometry relative="1" as="geometry" />
        </mxCell>
        <mxCell id="_YGeGJDo8BTtI1r9FFeI-45" value="No" style="edgeLabel;html=1;align=center;verticalAlign=middle;resizable=0;points=[];" parent="_YGeGJDo8BTtI1r9FFeI-40" vertex="1" connectable="0">
          <mxGeometry x="-0.8141" relative="1" as="geometry">
            <mxPoint x="10" y="3" as="offset" />
          </mxGeometry>
        </mxCell>
        <mxCell id="_YGeGJDo8BTtI1r9FFeI-29" value="Event Listener user action" style="rhombus;whiteSpace=wrap;html=1;" parent="1" vertex="1">
          <mxGeometry x="1220.005" y="-9556.5" width="80" height="80" as="geometry" />
        </mxCell>
        <mxCell id="_YGeGJDo8BTtI1r9FFeI-35" value="&lt;font style=&quot;font-size: 15px;&quot;&gt;A&lt;/font&gt;" style="ellipse;whiteSpace=wrap;html=1;aspect=fixed;" parent="1" vertex="1">
          <mxGeometry x="1570" y="-9654" width="47" height="47" as="geometry" />
        </mxCell>
        <mxCell id="_YGeGJDo8BTtI1r9FFeI-41" style="edgeStyle=orthogonalEdgeStyle;rounded=0;orthogonalLoop=1;jettySize=auto;html=1;entryX=0;entryY=0.5;entryDx=0;entryDy=0;" parent="1" source="_YGeGJDo8BTtI1r9FFeI-39" target="_YGeGJDo8BTtI1r9FFeI-47" edge="1">
          <mxGeometry relative="1" as="geometry">
            <mxPoint x="1410" y="-9410" as="targetPoint" />
          </mxGeometry>
        </mxCell>
        <mxCell id="_YGeGJDo8BTtI1r9FFeI-46" value="Log Out" style="edgeLabel;html=1;align=center;verticalAlign=middle;resizable=0;points=[];" parent="_YGeGJDo8BTtI1r9FFeI-41" vertex="1" connectable="0">
          <mxGeometry x="-0.1273" y="-2" relative="1" as="geometry">
            <mxPoint y="-11" as="offset" />
          </mxGeometry>
        </mxCell>
        <mxCell id="hdrvY5TLNorQvgxIyoRD-91" style="edgeStyle=elbowEdgeStyle;rounded=0;orthogonalLoop=1;jettySize=auto;html=1;" edge="1" parent="1" source="_YGeGJDo8BTtI1r9FFeI-39">
          <mxGeometry relative="1" as="geometry">
            <mxPoint x="1260" y="-9800" as="targetPoint" />
            <Array as="points">
              <mxPoint x="1180" y="-9600" />
            </Array>
          </mxGeometry>
        </mxCell>
        <mxCell id="_YGeGJDo8BTtI1r9FFeI-39" value="Event Listener user action" style="rhombus;whiteSpace=wrap;html=1;" parent="1" vertex="1">
          <mxGeometry x="1220.005" y="-9450" width="80" height="80" as="geometry" />
        </mxCell>
        <mxCell id="_YGeGJDo8BTtI1r9FFeI-47" value="&lt;font style=&quot;font-size: 15px;&quot;&gt;Main&lt;/font&gt;" style="shape=process;whiteSpace=wrap;html=1;backgroundOutline=1;" parent="1" vertex="1">
          <mxGeometry x="1410" y="-9440" width="120" height="60" as="geometry" />
        </mxCell>
        <mxCell id="hdrvY5TLNorQvgxIyoRD-1" style="edgeStyle=orthogonalEdgeStyle;rounded=0;orthogonalLoop=1;jettySize=auto;html=1;entryX=0.5;entryY=0;entryDx=0;entryDy=0;" edge="1" parent="1" source="hdrvY5TLNorQvgxIyoRD-2" target="hdrvY5TLNorQvgxIyoRD-5">
          <mxGeometry relative="1" as="geometry" />
        </mxCell>
        <mxCell id="hdrvY5TLNorQvgxIyoRD-2" value="&lt;font style=&quot;font-size: 15px;&quot;&gt;START&lt;/font&gt;" style="ellipse;whiteSpace=wrap;html=1;" vertex="1" parent="1">
          <mxGeometry x="1777.14" y="-9854.5" width="85.71" height="50" as="geometry" />
        </mxCell>
        <mxCell id="hdrvY5TLNorQvgxIyoRD-3" value="&lt;font style=&quot;font-size: 15px;&quot;&gt;Deposit&lt;/font&gt;" style="text;html=1;align=center;verticalAlign=middle;whiteSpace=wrap;rounded=0;" vertex="1" parent="1">
          <mxGeometry x="1790" y="-9894.5" width="60" height="30" as="geometry" />
        </mxCell>
        <mxCell id="hdrvY5TLNorQvgxIyoRD-4" style="edgeStyle=orthogonalEdgeStyle;rounded=0;orthogonalLoop=1;jettySize=auto;html=1;exitX=0.5;exitY=1;exitDx=0;exitDy=0;entryX=0.5;entryY=0;entryDx=0;entryDy=0;" edge="1" parent="1" source="hdrvY5TLNorQvgxIyoRD-5" target="hdrvY5TLNorQvgxIyoRD-8">
          <mxGeometry relative="1" as="geometry" />
        </mxCell>
        <mxCell id="hdrvY5TLNorQvgxIyoRD-5" value="GET deposit" style="shape=parallelogram;perimeter=parallelogramPerimeter;whiteSpace=wrap;html=1;fixedSize=1;" vertex="1" parent="1">
          <mxGeometry x="1750" y="-9774.5" width="140" height="60" as="geometry" />
        </mxCell>
        <mxCell id="hdrvY5TLNorQvgxIyoRD-6" style="edgeStyle=orthogonalEdgeStyle;rounded=0;orthogonalLoop=1;jettySize=auto;html=1;exitX=0.5;exitY=1;exitDx=0;exitDy=0;" edge="1" parent="1" source="hdrvY5TLNorQvgxIyoRD-8" target="hdrvY5TLNorQvgxIyoRD-10">
          <mxGeometry relative="1" as="geometry" />
        </mxCell>
        <mxCell id="hdrvY5TLNorQvgxIyoRD-7" style="edgeStyle=orthogonalEdgeStyle;rounded=0;orthogonalLoop=1;jettySize=auto;html=1;exitX=1;exitY=0.5;exitDx=0;exitDy=0;" edge="1" parent="1" source="hdrvY5TLNorQvgxIyoRD-8" target="hdrvY5TLNorQvgxIyoRD-12">
          <mxGeometry relative="1" as="geometry" />
        </mxCell>
        <mxCell id="hdrvY5TLNorQvgxIyoRD-8" value="if (amount&amp;nbsp; &amp;lt;=0)" style="rhombus;whiteSpace=wrap;html=1;" vertex="1" parent="1">
          <mxGeometry x="1770" y="-9674.5" width="100" height="100" as="geometry" />
        </mxCell>
        <mxCell id="hdrvY5TLNorQvgxIyoRD-9" style="edgeStyle=orthogonalEdgeStyle;rounded=0;orthogonalLoop=1;jettySize=auto;html=1;exitX=0.5;exitY=1;exitDx=0;exitDy=0;" edge="1" parent="1" source="hdrvY5TLNorQvgxIyoRD-10" target="hdrvY5TLNorQvgxIyoRD-14">
          <mxGeometry relative="1" as="geometry" />
        </mxCell>
        <mxCell id="hdrvY5TLNorQvgxIyoRD-10" value="DISPLAY &quot;Successfully deposited {amount}&lt;br&gt;New balance: {amount}&quot;" style="shape=parallelogram;perimeter=parallelogramPerimeter;whiteSpace=wrap;html=1;fixedSize=1;" vertex="1" parent="1">
          <mxGeometry x="1710" y="-9534.5" width="220" height="70" as="geometry" />
        </mxCell>
        <mxCell id="hdrvY5TLNorQvgxIyoRD-11" style="edgeStyle=orthogonalEdgeStyle;rounded=0;orthogonalLoop=1;jettySize=auto;html=1;exitX=1;exitY=0.5;exitDx=0;exitDy=0;entryX=0;entryY=0.5;entryDx=0;entryDy=0;" edge="1" parent="1" source="hdrvY5TLNorQvgxIyoRD-12" target="hdrvY5TLNorQvgxIyoRD-15">
          <mxGeometry relative="1" as="geometry" />
        </mxCell>
        <mxCell id="hdrvY5TLNorQvgxIyoRD-12" value="DISPLAY &quot;Deposit amount must be greater than than zero&quot;" style="shape=parallelogram;perimeter=parallelogramPerimeter;whiteSpace=wrap;html=1;fixedSize=1;" vertex="1" parent="1">
          <mxGeometry x="1920" y="-9654.5" width="170" height="60" as="geometry" />
        </mxCell>
        <mxCell id="hdrvY5TLNorQvgxIyoRD-13" value="" style="edgeStyle=orthogonalEdgeStyle;rounded=0;orthogonalLoop=1;jettySize=auto;html=1;" edge="1" parent="1" source="hdrvY5TLNorQvgxIyoRD-14" target="hdrvY5TLNorQvgxIyoRD-61">
          <mxGeometry relative="1" as="geometry" />
        </mxCell>
        <mxCell id="hdrvY5TLNorQvgxIyoRD-14" value="&lt;font style=&quot;font-size: 15px;&quot;&gt;Generate Receipt&lt;/font&gt;" style="shape=parallelogram;perimeter=parallelogramPerimeter;whiteSpace=wrap;html=1;fixedSize=1;" vertex="1" parent="1">
          <mxGeometry x="1740" y="-9434.5" width="160" height="60" as="geometry" />
        </mxCell>
        <mxCell id="hdrvY5TLNorQvgxIyoRD-15" value="A" style="ellipse;whiteSpace=wrap;html=1;aspect=fixed;" vertex="1" parent="1">
          <mxGeometry x="2120" y="-9644.5" width="40" height="40" as="geometry" />
        </mxCell>
        <mxCell id="hdrvY5TLNorQvgxIyoRD-16" value="&lt;font style=&quot;font-size: 15px;&quot;&gt;No&lt;/font&gt;" style="text;html=1;align=center;verticalAlign=middle;whiteSpace=wrap;rounded=0;" vertex="1" parent="1">
          <mxGeometry x="1867" y="-9649.5" width="60" height="30" as="geometry" />
        </mxCell>
        <mxCell id="hdrvY5TLNorQvgxIyoRD-17" value="&lt;font style=&quot;font-size: 15px;&quot;&gt;Yes&lt;/font&gt;" style="text;html=1;align=center;verticalAlign=middle;whiteSpace=wrap;rounded=0;" vertex="1" parent="1">
          <mxGeometry x="1760" y="-9574.5" width="60" height="30" as="geometry" />
        </mxCell>
        <mxCell id="hdrvY5TLNorQvgxIyoRD-18" style="edgeStyle=orthogonalEdgeStyle;rounded=0;orthogonalLoop=1;jettySize=auto;html=1;exitX=1;exitY=0.5;exitDx=0;exitDy=0;" edge="1" parent="1" source="hdrvY5TLNorQvgxIyoRD-19">
          <mxGeometry relative="1" as="geometry">
            <mxPoint x="1820" y="-9794.810344827587" as="targetPoint" />
          </mxGeometry>
        </mxCell>
        <mxCell id="hdrvY5TLNorQvgxIyoRD-19" value="A" style="ellipse;whiteSpace=wrap;html=1;aspect=fixed;" vertex="1" parent="1">
          <mxGeometry x="1720" y="-9814.5" width="40" height="40" as="geometry" />
        </mxCell>
        <mxCell id="hdrvY5TLNorQvgxIyoRD-20" value="START" style="ellipse;whiteSpace=wrap;html=1;" vertex="1" parent="1">
          <mxGeometry x="2840" y="-9892" width="120" height="60" as="geometry" />
        </mxCell>
        <mxCell id="hdrvY5TLNorQvgxIyoRD-21" value="&lt;font style=&quot;font-size: 15px;&quot;&gt;TRANSFER MONEY&lt;/font&gt;" style="text;html=1;align=center;verticalAlign=middle;whiteSpace=wrap;rounded=0;" vertex="1" parent="1">
          <mxGeometry x="2870" y="-9932" width="60" height="30" as="geometry" />
        </mxCell>
        <mxCell id="hdrvY5TLNorQvgxIyoRD-22" style="edgeStyle=orthogonalEdgeStyle;rounded=0;orthogonalLoop=1;jettySize=auto;html=1;exitX=0.5;exitY=1;exitDx=0;exitDy=0;entryX=0.5;entryY=0;entryDx=0;entryDy=0;" edge="1" parent="1" source="hdrvY5TLNorQvgxIyoRD-20" target="hdrvY5TLNorQvgxIyoRD-24">
          <mxGeometry relative="1" as="geometry">
            <mxPoint x="2900" y="-9732" as="sourcePoint" />
          </mxGeometry>
        </mxCell>
        <mxCell id="hdrvY5TLNorQvgxIyoRD-23" style="edgeStyle=orthogonalEdgeStyle;rounded=0;orthogonalLoop=1;jettySize=auto;html=1;exitX=0.5;exitY=1;exitDx=0;exitDy=0;entryX=0.5;entryY=0;entryDx=0;entryDy=0;" edge="1" parent="1" source="hdrvY5TLNorQvgxIyoRD-24" target="hdrvY5TLNorQvgxIyoRD-27">
          <mxGeometry relative="1" as="geometry" />
        </mxCell>
        <mxCell id="hdrvY5TLNorQvgxIyoRD-24" value="GET recipient" style="shape=parallelogram;perimeter=parallelogramPerimeter;whiteSpace=wrap;html=1;fixedSize=1;" vertex="1" parent="1">
          <mxGeometry x="2840" y="-9792" width="120" height="60" as="geometry" />
        </mxCell>
        <mxCell id="hdrvY5TLNorQvgxIyoRD-25" style="edgeStyle=orthogonalEdgeStyle;rounded=0;orthogonalLoop=1;jettySize=auto;html=1;exitX=1;exitY=0.5;exitDx=0;exitDy=0;" edge="1" parent="1" source="hdrvY5TLNorQvgxIyoRD-27" target="hdrvY5TLNorQvgxIyoRD-28">
          <mxGeometry relative="1" as="geometry" />
        </mxCell>
        <mxCell id="hdrvY5TLNorQvgxIyoRD-26" style="edgeStyle=orthogonalEdgeStyle;rounded=0;orthogonalLoop=1;jettySize=auto;html=1;exitX=0.5;exitY=1;exitDx=0;exitDy=0;entryX=0.5;entryY=0;entryDx=0;entryDy=0;" edge="1" parent="1" source="hdrvY5TLNorQvgxIyoRD-27">
          <mxGeometry relative="1" as="geometry">
            <mxPoint x="2900" y="-9562" as="targetPoint" />
          </mxGeometry>
        </mxCell>
        <mxCell id="hdrvY5TLNorQvgxIyoRD-27" value="if (!userExists&lt;br&gt;(recipient))" style="rhombus;whiteSpace=wrap;html=1;" vertex="1" parent="1">
          <mxGeometry x="2850" y="-9692" width="100" height="90" as="geometry" />
        </mxCell>
        <mxCell id="hdrvY5TLNorQvgxIyoRD-28" value="DISPLAY &quot;recepient does not exist&quot;" style="shape=parallelogram;perimeter=parallelogramPerimeter;whiteSpace=wrap;html=1;fixedSize=1;" vertex="1" parent="1">
          <mxGeometry x="3000" y="-9672" width="180" height="50" as="geometry" />
        </mxCell>
        <mxCell id="hdrvY5TLNorQvgxIyoRD-29" style="edgeStyle=orthogonalEdgeStyle;rounded=0;orthogonalLoop=1;jettySize=auto;html=1;exitX=1;exitY=0.5;exitDx=0;exitDy=0;entryX=0;entryY=0.5;entryDx=0;entryDy=0;" edge="1" parent="1" source="hdrvY5TLNorQvgxIyoRD-31" target="hdrvY5TLNorQvgxIyoRD-46">
          <mxGeometry relative="1" as="geometry" />
        </mxCell>
        <mxCell id="hdrvY5TLNorQvgxIyoRD-30" style="edgeStyle=orthogonalEdgeStyle;rounded=0;orthogonalLoop=1;jettySize=auto;html=1;exitX=0.5;exitY=1;exitDx=0;exitDy=0;entryX=0.5;entryY=0;entryDx=0;entryDy=0;" edge="1" parent="1" source="hdrvY5TLNorQvgxIyoRD-31" target="hdrvY5TLNorQvgxIyoRD-49">
          <mxGeometry relative="1" as="geometry" />
        </mxCell>
        <mxCell id="hdrvY5TLNorQvgxIyoRD-31" value="if (amount &amp;lt;=0)&amp;nbsp;" style="rhombus;whiteSpace=wrap;html=1;" vertex="1" parent="1">
          <mxGeometry x="3020" y="-9572" width="80" height="70" as="geometry" />
        </mxCell>
        <mxCell id="hdrvY5TLNorQvgxIyoRD-32" style="edgeStyle=orthogonalEdgeStyle;rounded=0;orthogonalLoop=1;jettySize=auto;html=1;exitX=0.5;exitY=1;exitDx=0;exitDy=0;" edge="1" parent="1" source="hdrvY5TLNorQvgxIyoRD-31" target="hdrvY5TLNorQvgxIyoRD-31">
          <mxGeometry relative="1" as="geometry" />
        </mxCell>
        <mxCell id="hdrvY5TLNorQvgxIyoRD-33" value="NO" style="text;html=1;align=center;verticalAlign=middle;whiteSpace=wrap;rounded=0;" vertex="1" parent="1">
          <mxGeometry x="2950" y="-9672" width="60" height="30" as="geometry" />
        </mxCell>
        <mxCell id="hdrvY5TLNorQvgxIyoRD-34" value="YES" style="text;html=1;align=center;verticalAlign=middle;whiteSpace=wrap;rounded=0;" vertex="1" parent="1">
          <mxGeometry x="2830" y="-9602" width="60" height="30" as="geometry" />
        </mxCell>
        <mxCell id="hdrvY5TLNorQvgxIyoRD-35" style="edgeStyle=orthogonalEdgeStyle;rounded=0;orthogonalLoop=1;jettySize=auto;html=1;exitX=0.5;exitY=1;exitDx=0;exitDy=0;entryX=0.5;entryY=0;entryDx=0;entryDy=0;" edge="1" parent="1" source="hdrvY5TLNorQvgxIyoRD-36" target="hdrvY5TLNorQvgxIyoRD-51">
          <mxGeometry relative="1" as="geometry" />
        </mxCell>
        <mxCell id="hdrvY5TLNorQvgxIyoRD-36" value="DISPLAY&amp;nbsp;&quot;Successfully transferred&quot;" style="shape=parallelogram;perimeter=parallelogramPerimeter;whiteSpace=wrap;html=1;fixedSize=1;" vertex="1" parent="1">
          <mxGeometry x="2980" y="-9352" width="160" height="50" as="geometry" />
        </mxCell>
        <mxCell id="hdrvY5TLNorQvgxIyoRD-37" value="YES" style="text;html=1;align=center;verticalAlign=middle;whiteSpace=wrap;rounded=0;" vertex="1" parent="1">
          <mxGeometry x="3110" y="-9572" width="60" height="30" as="geometry" />
        </mxCell>
        <mxCell id="hdrvY5TLNorQvgxIyoRD-38" value="NO" style="text;html=1;align=center;verticalAlign=middle;whiteSpace=wrap;rounded=0;" vertex="1" parent="1">
          <mxGeometry x="3000" y="-9502" width="60" height="30" as="geometry" />
        </mxCell>
        <mxCell id="hdrvY5TLNorQvgxIyoRD-39" style="edgeStyle=orthogonalEdgeStyle;rounded=0;orthogonalLoop=1;jettySize=auto;html=1;exitX=0.5;exitY=1;exitDx=0;exitDy=0;entryX=0.5;entryY=0;entryDx=0;entryDy=0;" edge="1" parent="1" source="hdrvY5TLNorQvgxIyoRD-40" target="hdrvY5TLNorQvgxIyoRD-43">
          <mxGeometry relative="1" as="geometry">
            <mxPoint x="2320" y="-9752" as="targetPoint" />
          </mxGeometry>
        </mxCell>
        <mxCell id="hdrvY5TLNorQvgxIyoRD-40" value="START" style="ellipse;whiteSpace=wrap;html=1;" vertex="1" parent="1">
          <mxGeometry x="2275" y="-9862" width="90" height="60" as="geometry" />
        </mxCell>
        <mxCell id="hdrvY5TLNorQvgxIyoRD-41" value="&lt;font style=&quot;font-size: 15px;&quot;&gt;WITHDRAW&lt;/font&gt;" style="text;html=1;align=center;verticalAlign=middle;resizable=0;points=[];autosize=1;strokeColor=none;fillColor=none;" vertex="1" parent="1">
          <mxGeometry x="2260" y="-9922" width="110" height="30" as="geometry" />
        </mxCell>
        <mxCell id="hdrvY5TLNorQvgxIyoRD-42" style="edgeStyle=orthogonalEdgeStyle;rounded=0;orthogonalLoop=1;jettySize=auto;html=1;entryX=0.5;entryY=0;entryDx=0;entryDy=0;" edge="1" parent="1" source="hdrvY5TLNorQvgxIyoRD-43" target="hdrvY5TLNorQvgxIyoRD-65">
          <mxGeometry relative="1" as="geometry" />
        </mxCell>
        <mxCell id="hdrvY5TLNorQvgxIyoRD-43" value="GET amount" style="shape=parallelogram;perimeter=parallelogramPerimeter;whiteSpace=wrap;html=1;fixedSize=1;" vertex="1" parent="1">
          <mxGeometry x="2220" y="-9762" width="200" height="60" as="geometry" />
        </mxCell>
        <mxCell id="hdrvY5TLNorQvgxIyoRD-44" style="edgeStyle=orthogonalEdgeStyle;rounded=0;orthogonalLoop=1;jettySize=auto;html=1;exitX=1;exitY=0.5;exitDx=0;exitDy=0;entryX=0;entryY=0.5;entryDx=0;entryDy=0;" edge="1" parent="1" source="hdrvY5TLNorQvgxIyoRD-45" target="hdrvY5TLNorQvgxIyoRD-31">
          <mxGeometry relative="1" as="geometry" />
        </mxCell>
        <mxCell id="hdrvY5TLNorQvgxIyoRD-45" value="GET amount" style="shape=parallelogram;perimeter=parallelogramPerimeter;whiteSpace=wrap;html=1;fixedSize=1;" vertex="1" parent="1">
          <mxGeometry x="2830" y="-9562" width="140" height="50" as="geometry" />
        </mxCell>
        <mxCell id="hdrvY5TLNorQvgxIyoRD-46" value="DISPLAY&amp;nbsp;&quot;Transfer amount must be greater than zero&quot;" style="shape=parallelogram;perimeter=parallelogramPerimeter;whiteSpace=wrap;html=1;fixedSize=1;" vertex="1" parent="1">
          <mxGeometry x="3170" y="-9572" width="230" height="70" as="geometry" />
        </mxCell>
        <mxCell id="hdrvY5TLNorQvgxIyoRD-47" style="edgeStyle=orthogonalEdgeStyle;rounded=0;orthogonalLoop=1;jettySize=auto;html=1;exitX=0.5;exitY=1;exitDx=0;exitDy=0;entryX=0.5;entryY=0;entryDx=0;entryDy=0;" edge="1" parent="1" source="hdrvY5TLNorQvgxIyoRD-49" target="hdrvY5TLNorQvgxIyoRD-36">
          <mxGeometry relative="1" as="geometry" />
        </mxCell>
        <mxCell id="hdrvY5TLNorQvgxIyoRD-48" style="edgeStyle=orthogonalEdgeStyle;rounded=0;orthogonalLoop=1;jettySize=auto;html=1;exitX=1;exitY=0.5;exitDx=0;exitDy=0;" edge="1" parent="1" source="hdrvY5TLNorQvgxIyoRD-49" target="hdrvY5TLNorQvgxIyoRD-50">
          <mxGeometry relative="1" as="geometry" />
        </mxCell>
        <mxCell id="hdrvY5TLNorQvgxIyoRD-49" value="bal&amp;gt;name" style="rhombus;whiteSpace=wrap;html=1;" vertex="1" parent="1">
          <mxGeometry x="3020" y="-9462" width="80" height="60" as="geometry" />
        </mxCell>
        <mxCell id="hdrvY5TLNorQvgxIyoRD-50" value="DISPLAY&amp;nbsp;&quot;insufficient balance&quot;" style="shape=parallelogram;perimeter=parallelogramPerimeter;whiteSpace=wrap;html=1;fixedSize=1;" vertex="1" parent="1">
          <mxGeometry x="3130" y="-9462" width="150" height="60" as="geometry" />
        </mxCell>
        <mxCell id="hdrvY5TLNorQvgxIyoRD-51" value="generate Receipt" style="shape=parallelogram;perimeter=parallelogramPerimeter;whiteSpace=wrap;html=1;fixedSize=1;" vertex="1" parent="1">
          <mxGeometry x="3000" y="-9272" width="130" height="60" as="geometry" />
        </mxCell>
        <mxCell id="hdrvY5TLNorQvgxIyoRD-52" value="A" style="ellipse;whiteSpace=wrap;html=1;aspect=fixed;" vertex="1" parent="1">
          <mxGeometry x="3230" y="-9670" width="40" height="40" as="geometry" />
        </mxCell>
        <mxCell id="hdrvY5TLNorQvgxIyoRD-53" style="edgeStyle=orthogonalEdgeStyle;rounded=0;orthogonalLoop=1;jettySize=auto;html=1;exitX=1;exitY=0.5;exitDx=0;exitDy=0;entryX=0.04;entryY=0.576;entryDx=0;entryDy=0;entryPerimeter=0;" edge="1" parent="1" source="hdrvY5TLNorQvgxIyoRD-28" target="hdrvY5TLNorQvgxIyoRD-52">
          <mxGeometry relative="1" as="geometry" />
        </mxCell>
        <mxCell id="hdrvY5TLNorQvgxIyoRD-54" style="edgeStyle=orthogonalEdgeStyle;rounded=0;orthogonalLoop=1;jettySize=auto;html=1;exitX=1;exitY=0.5;exitDx=0;exitDy=0;" edge="1" parent="1" source="hdrvY5TLNorQvgxIyoRD-55">
          <mxGeometry relative="1" as="geometry">
            <mxPoint x="2900" y="-9817.137931034482" as="targetPoint" />
          </mxGeometry>
        </mxCell>
        <mxCell id="hdrvY5TLNorQvgxIyoRD-55" value="A" style="ellipse;whiteSpace=wrap;html=1;aspect=fixed;" vertex="1" parent="1">
          <mxGeometry x="2790" y="-9832" width="30" height="30" as="geometry" />
        </mxCell>
        <mxCell id="hdrvY5TLNorQvgxIyoRD-56" value="YES" style="text;html=1;align=center;verticalAlign=middle;whiteSpace=wrap;rounded=0;" vertex="1" parent="1">
          <mxGeometry x="3010" y="-9392" width="60" height="30" as="geometry" />
        </mxCell>
        <mxCell id="hdrvY5TLNorQvgxIyoRD-57" value="NO" style="text;html=1;align=center;verticalAlign=middle;whiteSpace=wrap;rounded=0;" vertex="1" parent="1">
          <mxGeometry x="3090" y="-9462" width="60" height="30" as="geometry" />
        </mxCell>
        <mxCell id="hdrvY5TLNorQvgxIyoRD-58" value="A" style="ellipse;whiteSpace=wrap;html=1;aspect=fixed;" vertex="1" parent="1">
          <mxGeometry x="3300" y="-9462" width="50" height="50" as="geometry" />
        </mxCell>
        <mxCell id="hdrvY5TLNorQvgxIyoRD-59" style="edgeStyle=orthogonalEdgeStyle;rounded=0;orthogonalLoop=1;jettySize=auto;html=1;exitX=1;exitY=0.5;exitDx=0;exitDy=0;entryX=0;entryY=0.6;entryDx=0;entryDy=0;entryPerimeter=0;" edge="1" parent="1" source="hdrvY5TLNorQvgxIyoRD-50" target="hdrvY5TLNorQvgxIyoRD-58">
          <mxGeometry relative="1" as="geometry" />
        </mxCell>
        <mxCell id="hdrvY5TLNorQvgxIyoRD-60" value="" style="edgeStyle=orthogonalEdgeStyle;rounded=0;orthogonalLoop=1;jettySize=auto;html=1;" edge="1" parent="1" source="hdrvY5TLNorQvgxIyoRD-61" target="hdrvY5TLNorQvgxIyoRD-62">
          <mxGeometry relative="1" as="geometry" />
        </mxCell>
        <mxCell id="hdrvY5TLNorQvgxIyoRD-61" value="&lt;font style=&quot;font-size: 15px;&quot;&gt;Dashboard&lt;/font&gt;" style="shape=process;whiteSpace=wrap;html=1;backgroundOutline=1;" vertex="1" parent="1">
          <mxGeometry x="1745" y="-9343.5" width="150" height="70" as="geometry" />
        </mxCell>
        <mxCell id="hdrvY5TLNorQvgxIyoRD-62" value="&lt;font style=&quot;font-size: 15px;&quot;&gt;END&lt;/font&gt;" style="ellipse;whiteSpace=wrap;html=1;" vertex="1" parent="1">
          <mxGeometry x="1790" y="-9244.5" width="60" height="40" as="geometry" />
        </mxCell>
        <mxCell id="hdrvY5TLNorQvgxIyoRD-63" style="edgeStyle=orthogonalEdgeStyle;rounded=0;orthogonalLoop=1;jettySize=auto;html=1;exitX=1;exitY=0.5;exitDx=0;exitDy=0;entryX=0;entryY=0.5;entryDx=0;entryDy=0;" edge="1" parent="1" source="hdrvY5TLNorQvgxIyoRD-65" target="hdrvY5TLNorQvgxIyoRD-71">
          <mxGeometry relative="1" as="geometry" />
        </mxCell>
        <mxCell id="hdrvY5TLNorQvgxIyoRD-64" style="edgeStyle=orthogonalEdgeStyle;rounded=0;orthogonalLoop=1;jettySize=auto;html=1;exitX=0.5;exitY=1;exitDx=0;exitDy=0;entryX=0.5;entryY=0;entryDx=0;entryDy=0;" edge="1" parent="1" source="hdrvY5TLNorQvgxIyoRD-65" target="hdrvY5TLNorQvgxIyoRD-74">
          <mxGeometry relative="1" as="geometry" />
        </mxCell>
        <mxCell id="hdrvY5TLNorQvgxIyoRD-65" value="if (amount &amp;lt;=0)&amp;nbsp;" style="rhombus;whiteSpace=wrap;html=1;" vertex="1" parent="1">
          <mxGeometry x="2280" y="-9677" width="80" height="70" as="geometry" />
        </mxCell>
        <mxCell id="hdrvY5TLNorQvgxIyoRD-66" style="edgeStyle=orthogonalEdgeStyle;rounded=0;orthogonalLoop=1;jettySize=auto;html=1;exitX=0.5;exitY=1;exitDx=0;exitDy=0;" edge="1" parent="1" source="hdrvY5TLNorQvgxIyoRD-65" target="hdrvY5TLNorQvgxIyoRD-65">
          <mxGeometry relative="1" as="geometry" />
        </mxCell>
        <mxCell id="hdrvY5TLNorQvgxIyoRD-67" style="edgeStyle=orthogonalEdgeStyle;rounded=0;orthogonalLoop=1;jettySize=auto;html=1;exitX=0.5;exitY=1;exitDx=0;exitDy=0;entryX=0.5;entryY=0;entryDx=0;entryDy=0;" edge="1" parent="1" source="hdrvY5TLNorQvgxIyoRD-68" target="hdrvY5TLNorQvgxIyoRD-76">
          <mxGeometry relative="1" as="geometry" />
        </mxCell>
        <mxCell id="hdrvY5TLNorQvgxIyoRD-68" value="DISPLAY &quot;Successfully transferred&quot;" style="shape=parallelogram;perimeter=parallelogramPerimeter;whiteSpace=wrap;html=1;fixedSize=1;" vertex="1" parent="1">
          <mxGeometry x="2230" y="-9482" width="180" height="50" as="geometry" />
        </mxCell>
        <mxCell id="hdrvY5TLNorQvgxIyoRD-69" value="YES" style="text;html=1;align=center;verticalAlign=middle;whiteSpace=wrap;rounded=0;" vertex="1" parent="1">
          <mxGeometry x="2350" y="-9662" width="60" height="30" as="geometry" />
        </mxCell>
        <mxCell id="hdrvY5TLNorQvgxIyoRD-70" value="NO" style="text;html=1;align=center;verticalAlign=middle;whiteSpace=wrap;rounded=0;" vertex="1" parent="1">
          <mxGeometry x="2300" y="-9607" width="60" height="30" as="geometry" />
        </mxCell>
        <mxCell id="hdrvY5TLNorQvgxIyoRD-71" value="DISPLAY &quot;Withdraw amount must be greater than zero&quot;" style="shape=parallelogram;perimeter=parallelogramPerimeter;whiteSpace=wrap;html=1;fixedSize=1;" vertex="1" parent="1">
          <mxGeometry x="2400" y="-9677" width="180" height="70" as="geometry" />
        </mxCell>
        <mxCell id="hdrvY5TLNorQvgxIyoRD-72" style="edgeStyle=orthogonalEdgeStyle;rounded=0;orthogonalLoop=1;jettySize=auto;html=1;exitX=0.5;exitY=1;exitDx=0;exitDy=0;entryX=0.5;entryY=0;entryDx=0;entryDy=0;" edge="1" parent="1" source="hdrvY5TLNorQvgxIyoRD-74" target="hdrvY5TLNorQvgxIyoRD-68">
          <mxGeometry relative="1" as="geometry" />
        </mxCell>
        <mxCell id="hdrvY5TLNorQvgxIyoRD-73" style="edgeStyle=orthogonalEdgeStyle;rounded=0;orthogonalLoop=1;jettySize=auto;html=1;exitX=1;exitY=0.5;exitDx=0;exitDy=0;" edge="1" parent="1" source="hdrvY5TLNorQvgxIyoRD-74" target="hdrvY5TLNorQvgxIyoRD-75">
          <mxGeometry relative="1" as="geometry" />
        </mxCell>
        <mxCell id="hdrvY5TLNorQvgxIyoRD-74" value="bal&amp;gt;amount" style="rhombus;whiteSpace=wrap;html=1;" vertex="1" parent="1">
          <mxGeometry x="2280" y="-9576" width="80" height="60" as="geometry" />
        </mxCell>
        <mxCell id="hdrvY5TLNorQvgxIyoRD-75" value="DISPLAY &quot;insufficient balance&quot;" style="shape=parallelogram;perimeter=parallelogramPerimeter;whiteSpace=wrap;html=1;fixedSize=1;" vertex="1" parent="1">
          <mxGeometry x="2390" y="-9576" width="150" height="60" as="geometry" />
        </mxCell>
        <mxCell id="hdrvY5TLNorQvgxIyoRD-76" value="generate Receipt" style="shape=parallelogram;perimeter=parallelogramPerimeter;whiteSpace=wrap;html=1;fixedSize=1;" vertex="1" parent="1">
          <mxGeometry x="2255" y="-9412" width="130" height="60" as="geometry" />
        </mxCell>
        <mxCell id="hdrvY5TLNorQvgxIyoRD-77" value="YES" style="text;html=1;align=center;verticalAlign=middle;whiteSpace=wrap;rounded=0;" vertex="1" parent="1">
          <mxGeometry x="2270" y="-9516" width="60" height="30" as="geometry" />
        </mxCell>
        <mxCell id="hdrvY5TLNorQvgxIyoRD-78" value="NO" style="text;html=1;align=center;verticalAlign=middle;whiteSpace=wrap;rounded=0;" vertex="1" parent="1">
          <mxGeometry x="2350" y="-9567" width="60" height="30" as="geometry" />
        </mxCell>
        <mxCell id="hdrvY5TLNorQvgxIyoRD-79" value="A" style="ellipse;whiteSpace=wrap;html=1;aspect=fixed;" vertex="1" parent="1">
          <mxGeometry x="2560" y="-9576" width="50" height="50" as="geometry" />
        </mxCell>
        <mxCell id="hdrvY5TLNorQvgxIyoRD-80" style="edgeStyle=orthogonalEdgeStyle;rounded=0;orthogonalLoop=1;jettySize=auto;html=1;exitX=1;exitY=0.5;exitDx=0;exitDy=0;entryX=0;entryY=0.6;entryDx=0;entryDy=0;entryPerimeter=0;" edge="1" parent="1" source="hdrvY5TLNorQvgxIyoRD-75" target="hdrvY5TLNorQvgxIyoRD-79">
          <mxGeometry relative="1" as="geometry" />
        </mxCell>
        <mxCell id="hdrvY5TLNorQvgxIyoRD-81" value="" style="rounded=0;orthogonalLoop=1;jettySize=auto;html=1;exitX=0.466;exitY=1.006;exitDx=0;exitDy=0;exitPerimeter=0;" edge="1" parent="1" source="hdrvY5TLNorQvgxIyoRD-76" target="hdrvY5TLNorQvgxIyoRD-83">
          <mxGeometry relative="1" as="geometry">
            <mxPoint x="2315" y="-9352" as="sourcePoint" />
          </mxGeometry>
        </mxCell>
        <mxCell id="hdrvY5TLNorQvgxIyoRD-82" value="" style="edgeStyle=orthogonalEdgeStyle;rounded=0;orthogonalLoop=1;jettySize=auto;html=1;" edge="1" parent="1" source="hdrvY5TLNorQvgxIyoRD-83" target="hdrvY5TLNorQvgxIyoRD-84">
          <mxGeometry relative="1" as="geometry" />
        </mxCell>
        <mxCell id="hdrvY5TLNorQvgxIyoRD-83" value="&lt;font style=&quot;font-size: 15px;&quot;&gt;Dashboard&lt;/font&gt;" style="shape=process;whiteSpace=wrap;html=1;backgroundOutline=1;" vertex="1" parent="1">
          <mxGeometry x="2241" y="-9321" width="150" height="70" as="geometry" />
        </mxCell>
        <mxCell id="hdrvY5TLNorQvgxIyoRD-84" value="&lt;font style=&quot;font-size: 15px;&quot;&gt;END&lt;/font&gt;" style="ellipse;whiteSpace=wrap;html=1;" vertex="1" parent="1">
          <mxGeometry x="2286" y="-9222" width="60" height="40" as="geometry" />
        </mxCell>
        <mxCell id="hdrvY5TLNorQvgxIyoRD-85" value="" style="rounded=0;orthogonalLoop=1;jettySize=auto;html=1;" edge="1" parent="1" target="hdrvY5TLNorQvgxIyoRD-87">
          <mxGeometry relative="1" as="geometry">
            <mxPoint x="3065" y="-9212" as="sourcePoint" />
          </mxGeometry>
        </mxCell>
        <mxCell id="hdrvY5TLNorQvgxIyoRD-86" value="" style="edgeStyle=orthogonalEdgeStyle;rounded=0;orthogonalLoop=1;jettySize=auto;html=1;" edge="1" parent="1" source="hdrvY5TLNorQvgxIyoRD-87" target="hdrvY5TLNorQvgxIyoRD-88">
          <mxGeometry relative="1" as="geometry" />
        </mxCell>
        <mxCell id="hdrvY5TLNorQvgxIyoRD-87" value="&lt;font style=&quot;font-size: 15px;&quot;&gt;Dashboard&lt;/font&gt;" style="shape=process;whiteSpace=wrap;html=1;backgroundOutline=1;" vertex="1" parent="1">
          <mxGeometry x="2990" y="-9181" width="150" height="70" as="geometry" />
        </mxCell>
        <mxCell id="hdrvY5TLNorQvgxIyoRD-88" value="&lt;font style=&quot;font-size: 15px;&quot;&gt;END&lt;/font&gt;" style="ellipse;whiteSpace=wrap;html=1;" vertex="1" parent="1">
          <mxGeometry x="3035" y="-9082" width="60" height="40" as="geometry" />
        </mxCell>
      </root>
    </mxGraphModel>
  </diagram>
</mxfile>
